<?xml version="1.0" encoding="UTF-8"?>
<svg id="Layer_1" xmlns="http://www.w3.org/2000/svg" width="1036" height="512" viewBox="0 0 1036 512">
  <defs>
    <style>
      .cls-1 {
        fill: #8465d1;
      }

      .cls-2 {
        fill: #ff4878;
      }

      .cls-3 {
        fill: #191919;
      }
    </style>
  </defs>
  <path class="cls-2" d="M31.77,362.97l941.14-186.16c18.48-3.66,36.43,8.36,40.09,26.85,3.65,18.48-8.36,36.43-26.85,40.09.07.19-949.87,142.24-950.35,142.42-14.57,1.91-19.32-19.53-4.03-23.19h0Z"/>
  <path class="cls-1" d="M724.07,313.47c-65.53,109.64-223.75,112.26-285.17-3.51,0,0-3.23-6.34-3.23-6.34l-.2-.4-.1-.2c.38,1.13,1.16,2.09,2.02,3,5.61,5.59,14.5,1.52,15.97-4.27-3.62,15.68-9.34,32.03-16.51,46.53-32.35,65.29-105.57,116.09-180.75,100.68-49.95-10.74-91-47.08-115.21-90.9-19.17-34.78-27.89-74.75-26.43-114.38.49-18.25,15.68-32.66,33.93-32.17,18.82.45,33.55,16.78,32.09,35.54-2.75,28.39,1.57,57.36,13.9,83.21,17.08,35.96,51.6,68.54,92.71,69.89,58.08.73,109.25-48.28,126.05-102.52,0,0,1.77-5.37,1.77-5.37,1.57-5.95,4.78-11.49,9.58-15.5,14.83-12.89,38.84-6.72,45.92,11.09,25.95,64.49,98.02,96.27,163.75,72.08,29.37-10.32,55.43-30.59,73.3-56.96,7.09-10.27,22.88-.66,16.61,10.5h0Z"/>
  <g>
    <path class="cls-3" d="M233.91,265.72v-122.54h23.11v18.38c2.92-6.3,6.92-11.23,11.99-14.79s11-5.34,17.77-5.34c7.58,0,14.5,1.96,20.74,5.87,6.24,3.91,11.14,9.34,14.71,16.28,3.56,6.94,5.34,14.74,5.34,23.37s-1.81,16.43-5.43,23.37c-3.62,6.94-8.55,12.37-14.79,16.28-6.24,3.91-13.1,5.86-20.57,5.86-6.42,0-12.11-1.72-17.07-5.16-4.96-3.44-8.78-8.08-11.46-13.92v52.34h-24.33ZM280.12,210.06c4.2,0,8.02-1.02,11.47-3.06,3.44-2.04,6.15-4.81,8.14-8.32,1.98-3.5,2.97-7.41,2.97-11.73s-.99-8.23-2.97-11.73c-1.99-3.5-4.7-6.27-8.14-8.32-3.45-2.04-7.26-3.06-11.47-3.06s-8.02,1.02-11.46,3.06c-3.45,2.04-6.13,4.81-8.05,8.32-1.93,3.5-2.89,7.41-2.89,11.73s.96,8.23,2.89,11.73c1.93,3.5,4.61,6.28,8.05,8.32,3.44,2.04,7.26,3.06,11.46,3.06Z"/>
    <path class="cls-3" d="M345.34,230.71v-87.53h23.11v18.38c2.57-6.07,6.22-10.94,10.94-14.62,4.72-3.68,10.35-5.51,16.89-5.51,6.18,0,11.53,1.31,16.02,3.94,4.49,2.63,7.91,6.45,10.24,11.46,2.33,5.02,3.5,10.97,3.5,17.86v6.83h-24.33v-3.15c0-4.55-1.29-8.02-3.85-10.42-2.57-2.39-6.01-3.59-10.33-3.59-3.27,0-6.28.85-9.02,2.54-2.74,1.69-4.9,4.06-6.48,7.09-1.57,3.04-2.36,6.47-2.36,10.33v46.39h-24.33Z"/>
    <path class="cls-3" d="M481.95,232.46c-9.1,0-17.31-1.95-24.6-5.86-7.3-3.91-13.02-9.34-17.16-16.28-4.14-6.94-6.21-14.73-6.21-23.37s2.07-16.43,6.21-23.37c4.14-6.94,9.89-12.37,17.24-16.28,7.35-3.91,15.52-5.87,24.51-5.87s17.16,1.96,24.51,5.87c7.35,3.91,13.1,9.34,17.24,16.28,4.14,6.94,6.22,14.74,6.22,23.37s-2.07,16.25-6.22,23.2c-4.15,6.94-9.89,12.4-17.24,16.37-7.35,3.97-15.52,5.95-24.51,5.95ZM481.95,210.06c4.32,0,8.2-1.02,11.64-3.06,3.44-2.04,6.22-4.79,8.31-8.23,2.1-3.44,3.15-7.38,3.15-11.82s-1.05-8.37-3.15-11.82c-2.1-3.44-4.87-6.18-8.31-8.23-3.45-2.04-7.33-3.06-11.64-3.06s-8.38,1.02-11.82,3.06c-3.45,2.04-6.19,4.79-8.23,8.23-2.04,3.45-3.06,7.38-3.06,11.82s.99,8.38,2.97,11.82c1.98,3.45,4.73,6.19,8.23,8.23,3.5,2.04,7.47,3.06,11.91,3.06Z"/>
    <path class="cls-3" d="M586.8,233.16c-12.84,0-23.6-2.89-32.3-8.67-8.69-5.78-13.57-14.03-14.62-24.77h24.86c1.05,4.55,3.5,8.05,7.35,10.5,3.85,2.45,8.69,3.68,14.53,3.68,2.68,0,5.37-.35,8.05-1.05,2.68-.7,4.93-1.75,6.74-3.15,1.81-1.4,2.71-3.38,2.71-5.95,0-1.98-.79-3.61-2.36-4.9-1.57-1.28-3.82-2.34-6.74-3.15s-7.06-1.63-12.43-2.45c-.35-.12-.76-.2-1.23-.27-.47-.06-.94-.14-1.4-.26-8.05-1.28-14.68-2.83-19.87-4.64-5.19-1.81-9.31-4.32-12.34-7.53-3.04-3.21-4.55-7.56-4.55-13.04,0-5.95,1.86-10.94,5.6-14.97,3.74-4.03,8.69-7,14.88-8.93s12.89-2.89,20.13-2.89c12.25,0,22.43,2.77,30.55,8.31,8.11,5.54,12.57,13.86,13.39,24.95h-24.33c-.7-4.55-2.95-7.97-6.74-10.24-3.79-2.27-8.31-3.41-13.57-3.41-3.97,0-7.59.82-10.85,2.45-3.27,1.63-4.9,4.15-4.9,7.53,0,1.99.73,3.62,2.19,4.9,1.46,1.29,3.56,2.31,6.3,3.06,2.74.76,6.39,1.61,10.94,2.54.82.12,1.63.2,2.45.26.82.06,1.69.2,2.63.44.47.12.88.2,1.23.26.35.06.76.15,1.23.26,7.35,1.29,13.45,2.83,18.29,4.64,4.84,1.81,8.67,4.26,11.47,7.35,2.8,3.09,4.2,7.15,4.2,12.17,0,5.72-1.84,10.59-5.51,14.62-3.68,4.03-8.67,7.09-14.97,9.19-6.3,2.1-13.3,3.15-21.01,3.15Z"/>
    <path class="cls-3" d="M685.88,232.46c-11.55,0-20.08-2.48-25.56-7.44-5.49-4.96-8.23-12.22-8.23-21.79v-37.99h-19.78v-22.06h11.38c3.61,0,6.33-.93,8.14-2.8,1.81-1.86,2.71-4.61,2.71-8.23v-9.98h21.88v21.01h31.51v22.06h-31.51v32.39c0,4.44,1.08,7.59,3.24,9.45,2.16,1.87,5.81,2.8,10.94,2.8s11.03-.53,17.33-1.58v21.88c-3.5.58-7.29,1.11-11.38,1.57s-7.65.7-10.68.7Z"/>
    <path class="cls-3" d="M735.84,133.2l-15.06-32.91h31.86l-15.06,32.91h-1.75ZM724.47,230.71v-87.53h24.33v87.53h-24.33Z"/>
    <path class="cls-3" d="M771.84,230.71v-87.53h23.11v18.38c2.57-6.07,6.22-10.94,10.94-14.62,4.72-3.68,10.35-5.51,16.89-5.51,6.18,0,11.53,1.31,16.02,3.94,4.49,2.63,7.91,6.45,10.24,11.46,2.33,5.02,3.5,10.97,3.5,17.86v6.83h-24.33v-3.15c0-4.55-1.29-8.02-3.85-10.42-2.57-2.39-6.01-3.59-10.33-3.59-3.27,0-6.28.85-9.02,2.54-2.74,1.69-4.9,4.06-6.48,7.09-1.57,3.04-2.36,6.47-2.36,10.33v46.39h-24.33Z"/>
  </g>
</svg>